<?xml version="1.0" standalone="no"?>
<!DOCTYPE svg PUBLIC "-//W3C//DTD SVG 20010904//EN"
 "http://www.w3.org/TR/2001/REC-SVG-20010904/DTD/svg10.dtd">
<svg version="1.0" xmlns="http://www.w3.org/2000/svg"
 width="200.000000pt" height="200.000000pt" viewBox="0 0 200.000000 200.000000"
 preserveAspectRatio="xMidYMid meet">

<g transform="translate(0.000000,200.000000) scale(0.100000,-0.100000)"
fill="#D27487" stroke="none">
<path d="M880 1994 c-187 -35 -299 -76 -425 -158 -212 -138 -364 -354 -428
-606 -29 -115 -30 -329 -3 -445 87 -380 381 -674 761 -761 118 -28 330 -26
449 4 172 43 346 142 471 267 125 125 224 299 267 471 30 119 32 331 4 449
-86 373 -371 664 -741 756 -77 20 -297 34 -355 23z m335 -188 c289 -80 517
-313 591 -604 113 -444 -158 -895 -604 -1008 -438 -111 -889 155 -1009 596
-25 91 -25 329 0 420 83 304 325 534 637 606 76 18 306 12 385 -10z"/>
<path d="M630 1407 c-54 -28 -61 -99 -13 -137 25 -19 42 -20 384 -20 l358 0
27 24 c36 30 39 86 6 119 -22 22 -25 22 -380 25 -275 2 -363 -1 -382 -11z"/>
<path d="M619 1070 c-9 -5 -22 -23 -29 -40 -15 -35 0 -84 31 -100 24 -13 734
-13 758 0 10 5 24 23 31 40 15 35 0 84 -31 100 -23 13 -738 13 -760 0z"/>
<path d="M614 726 c-36 -30 -39 -86 -6 -119 23 -22 23 -22 392 -22 369 0 369
0 392 22 33 33 30 89 -6 119 l-27 24 -359 0 -359 0 -27 -24z"/>
</g>
</svg>
